<svg width="24" height="24" viewBox="0 0 24 24" fill="none" xmlns="http://www.w3.org/2000/svg">
<path d="M22 9.49988V8.99988V8.99988C22 7.1386 22 6.20796 21.7553 5.45479C21.2607 3.9326 20.0673 2.73918 18.5451 2.2446C17.7919 1.99988 16.8613 1.99988 15 1.99988H10C7.19974 1.99988 5.79961 1.99988 4.73005 2.54485C3.78924 3.02421 3.02433 3.78911 2.54497 4.72993C2 5.79948 2 7.19962 2 9.99988V13.9999C2 16.8001 2 18.2003 2.54497 19.2698C3.02433 20.2106 3.78924 20.9755 4.73005 21.4549C5.79961 21.9999 7.19974 21.9999 10 21.9999H15C16.8613 21.9999 17.7919 21.9999 18.5451 21.7552C20.0673 21.2606 21.2607 20.0672 21.7553 18.545C22 17.7918 22 16.8612 22 14.9999V14.9999V14.4999M2.5 6.99988H10M21.5 6.99988H13.5L10.5 1.99988M16.2998 2.49988L18.9998 6.99988M5.5 2.49988L8 6.99988M7.5 16.9999C7.5 17.276 7.27614 17.4999 7 17.4999C6.72386 17.4999 6.5 17.276 6.5 16.9999M7.5 16.9999C7.5 16.7237 7.27614 16.4999 7 16.4999C6.72386 16.4999 6.5 16.7237 6.5 16.9999M7.5 16.9999H6.5" stroke="#ff7124" stroke-width="1" stroke-linecap="round" stroke-linejoin="round"/>
</svg>
