<svg width="24" height="24" viewBox="0 0 24 24" fill="none" xmlns="http://www.w3.org/2000/svg">
<path d="M11.5 18V14C11.5 12.3431 12.8431 11 14.5 11V11C16.1569 11 17.5 12.3431 17.5 14V18M7.5 18V11M8 7.5C8 7.77614 7.77614 8 7.5 8C7.22386 8 7 7.77614 7 7.5M8 7.5C8 7.22386 7.77614 7 7.5 7C7.22386 7 7 7.22386 7 7.5M8 7.5H7M22 10V9.5V9.5C22 7.17029 22 6.00544 21.6194 5.08658C21.1119 3.86144 20.1386 2.88807 18.9134 2.3806C17.9946 2 16.8297 2 14.5 2H10C7.19974 2 5.79961 2 4.73005 2.54497C3.78924 3.02433 3.02433 3.78924 2.54497 4.73005C2 5.79961 2 7.19974 2 10V14C2 16.8003 2 18.2004 2.54497 19.27C3.02433 20.2108 3.78924 20.9757 4.73005 21.455C5.79961 22 7.19974 22 10 22H14.5C16.8297 22 17.9946 22 18.9134 21.6194C20.1386 21.1119 21.1119 20.1386 21.6194 18.9134C22 17.9946 22 16.8297 22 14.5V14.5V14" stroke="#1B1B1B" stroke-width="2" stroke-linecap="round" stroke-linejoin="round"/>
</svg>
